# AST/ASF file generated using VICON BodyLanguage
# -----------------------------------------------
:version 1.10
:name VICON
:units
  mass 1.0
  length 0.45
  angle deg
:documentation
   .ast/.asf automatically generated from VICON data using
   VICON BodyBuilder and BodyLanguage model FoxedUp or BRILLIANT.MOD
:root
   order TX TY TZ RX RY RZ
   axis XYZ
   position 0 0 0  
   orientation 0 0 0 
:bonedata
  begin
     id 1 
     name lhipjoint
     direction 0.541323 -0.757556 0.364798 
     length 2.47576 
     axis 0 0 0  XYZ
  end
  begin
     id 2 
     name lfemur
     direction 0.34202 -0.939693 0  
     length 7.46493  
     axis 0 0 20  XYZ
    dof rx ry rz
    limits (-160.0 20.0)
           (-70.0 70.0)
           (-60.0 70.0)
  end
  begin
     id 3 
     name ltibia
     direction 0.34202 -0.939693 0   
     length 7.73805   
     axis 0 0 20   XYZ
    dof rx
    limits (-10.0 170.0)
  end
  begin
     id 4 
     name lfoot
     direction 0.107174 -0.294458 0.949636   
     length 2.25864   
     axis -90 7.62852e-016 20   XYZ
    dof rx rz
    limits (-45.0 90.0)
           (-70.0 20.0)
  end
  begin
     id 5 
     name ltoes
     direction 1.53606e-011 -4.21934e-011 1   
     length 1.12451   
     axis -90 7.62852e-016 20   XYZ
    dof rx
    limits (-90.0 20.0)
  end
  begin
     id 6 
     name rhipjoint
     direction -0.524745 -0.766967 0.36933   
     length 2.44538  
     axis 0 0 0  XYZ 
  end
  begin
     id 7 
     name rfemur
     direction -0.34202 -0.939693 0   
     length 7.61604   
     axis 0 0 -20   XYZ
    dof rx ry rz
    limits (-160.0 20.0)
           (-70.0 70.0)
           (-70.0 60.0)
  end
  begin
     id 8 
     name rtibia
     direction -0.34202 -0.939693 0   
     length 7.61056   
     axis 0 0 -20   XYZ
    dof rx
    limits (-10.0 170.0)
 end
 begin
     id 9 
     name rfoot
     direction -0.12616 -0.346623 0.929482   
     length 2.46372  
     axis -90 -7.62852e-016 -20   XYZ
    dof rx rz
    limits (-45.0 90.0)
           (-20.0 70.0)
  end
  begin
     id 10 
     name rtoes
     direction -1.53531e-011 -4.22004e-011 1   
     length 1.21611   
     axis -90 -7.62852e-016 -20   XYZ
    dof rx
    limits (-90.0 20.0)
  end
  begin
     id 11 
     name lowerback
     direction -0.000778023 0.997293 -0.0735223   
     length 2.06139   
     axis 0 0 0   XYZ
    dof rx ry rz
    limits (-20.0 45.0)
           (-30.0 30.0)
           (-30.0 30.0)
  end
  begin
     id 12 
     name upperback
     direction 0.0222598 0.999722 -0.0078355   
     length 2.06383   
     axis 0 0 0   XYZ
    dof rx ry rz
    limits (-20.0 45.0)
           (-30.0 30.0)
           (-30.0 30.0)
  end
  begin
     id 13 
     name thorax
     direction 0.0219654 0.999405 0.0265994   
     length 2.07163   
     axis 0 0 0   XYZ
    dof rx ry rz
    limits (-20.0 45.0)
           (-30.0 30.0)
           (-30.0 30.0)
  end
  begin
     id 14 
     name lowerneck
     direction 0.0213282 0.988147 0.15202   
     length 1.75969   
     axis 0 0 0   XYZ
    dof rx ry rz
    limits (-20.0 45.0)
           (-30.0 30.0)
           (-30.0 30.0)
  end
  begin
     id 15 
     name upperneck
     direction -0.0546456 0.982624 -0.177379   
     length 1.79244   
     axis 0 0 0   XYZ
    dof rx ry rz
    limits (-20.0 45.0)
           (-30.0 30.0)
           (-30.0 30.0)
  end
  begin
     id 16
     name head
     direction -0.0199987 0.996855 -0.076686  
     length 1.80555  
     axis 0 0 0   XYZ
    dof rx ry rz
    limits (-20.0 45.0)
           (-30.0 30.0)
           (-30.0 30.0)
  end
  begin
     id 17 
     name lclavicle
     direction 0.929565 0.363219 -0.063096  
     length 3.55722  
     axis 0 0 0   XYZ
    dof ry rz
    limits (-20.0 10.0)
           (0.0 20.0)
  end
  begin
     id 18 
     name lhumerus
     direction 1 -4.48993e-011 -2.36203e-027   
     length 4.92785   
     axis 180 -30 -90   XYZ
    dof rx ry rz
    limits (-60.0 90.0)
           (-90.0 90.0)
           (-90.0 90.0)
  end
  begin
     id 19
     name lradius
     direction 1 -4.48947e-011 2.02997e-027   
     length 3.44052   
     axis 180 -30 -90   XYZ
    dof rx
    limits (-10.0 170.0)
  end
  begin
     id 20
     name lwrist
     direction 1 -4.48962e-011 1.45991e-027   
     length 1.72026   
     axis 1.49639e-024 90 90   XYZ
    dof ry
    limits (-180.0 0.0)
 end
  begin
     id 21 
     name lhand
     direction 1 -4.48984e-011 2.91906e-027   
     length 0.654326   
     axis -1.863e-015 90 90   XYZ
    dof rx rz
    limits (-90.0 90.0)
           (-45.0 45.0)
  end
  begin
     id 22 
     name lfingers
     direction 1 -4.48961e-011 5.83968e-027   
     length 0.527534   
     axis -3.72598e-015 90 90   XYZ
    dof rx
    limits (0.0 90.0)
  end
  begin
     id 23
     name lthumb
     direction 0.707107 -6.34963e-011 0.707107   
     length 0.757437   
     axis -90 45 -6.68868e-015   XYZ
    dof rx rz
    limits (-45.0 45.0)
           (-45.0 45.0)
  end
  begin
     id 24 
     name rclavicle
     direction -0.902944 0.422599 -0.0781198   
     length 3.54432  
     axis 0 0 0   XYZ 
    dof ry rz
    limits (-10.0 20.0)
           (-20.0 0.0)
  end
  begin
     id 25 
     name rhumerus
     direction -1 -4.48953e-011 -4.75835e-028  
     length 5.09181   
     axis 180 30 90   XYZ
    dof rx ry rz
    limits (-90.0 60.0)
           (-90.0 90.0)
           (-90.0 90.0)
  end
  begin
     id 26 
     name rradius
     direction -1 -4.48986e-011 -3.25889e-027   
     length 3.49865   
     axis 180 30 90   XYZ
    dof rx
    limits (-10.0 170.0)
  end
  begin
     id 27 
     name rwrist
     direction -1 -4.48963e-011 1.45989e-027   
     length 1.74933   
     axis 1.49639e-024 -90 -90   XYZ
    dof ry
    limits (-180.0 0.0)
  end
  begin
     id 28
     name rhand
     direction -1 -4.49003e-011 2.91844e-027   
     length 0.66641   
     axis -1.863e-015 -90 -90   XYZ
    dof rx rz
    limits (-90.0 90.0)
           (-45.0 45.0)
  end
  begin
     id 29
     name rfingers
     direction -1 -4.48973e-011 5.83886e-027   
     length 0.537277   
     axis -3.72598e-015 -90 -90   XYZ
    dof rx
    limits (0.0 90.0)
  end
  begin
     id 30
     name rthumb
     direction -0.707107 -6.34976e-011 0.707107   
     length 0.771425   
     axis -90 -45 6.68868e-015   XYZ
    dof rx rz
    limits (-45.0 45.0)
           (-45.0 45.0)
  end
:hierarchy
  begin
    root lhipjoint rhipjoint lowerback
    lhipjoint lfemur
    lfemur ltibia
    ltibia lfoot
    lfoot ltoes
    rhipjoint rfemur
    rfemur rtibia
    rtibia rfoot
    rfoot rtoes
    lowerback upperback
    upperback thorax
    thorax lowerneck lclavicle rclavicle
    lowerneck upperneck
    upperneck head
    lclavicle lhumerus
    lhumerus lradius
    lradius lwrist
    lwrist lhand lthumb
    lhand lfingers
    rclavicle rhumerus
    rhumerus rradius
    rradius rwrist
    rwrist rhand rthumb
    rhand rfingers
  end

#!OML:ASF H:\LiuWeirdWalks\Patient Classification 1\Patient 1\Session 1\male.ASF
:FULLY-SPECIFIED
:DEGREES
202
root -0.0596097 17.9959 -30.9202 1.97307 9.0369 -2.60641
lowerback 1.46677 -0.919919 -0.181989
upperback -1.17198 -1.16073 3.71201
thorax -1.94613 -0.549493 3.96109
lowerneck -20.2792 -0.340868 10.0718
upperneck 44.838 2.1972 -15.373
head 23.2512 0.882016 -10.3827
rclavicle -2.26118e-015 -2.8625e-014
rhumerus -45.6891 -40.3204 -19.3059
rradius 22.6211
rwrist 3.52504
rhand -25.1196 6.48995
rfingers 7.12502
rthumb 1.39605 -23.4852
lclavicle -2.26118e-015 -2.8625e-014
lhumerus -37.5943 23.6279 52.9413
lradius 28.4262
lwrist 4.45348
lhand -15.5787 -2.78107
lfingers 7.12502
lthumb 10.6066 26.9313
rfemur -6.09785 -3.43719 22.0357
rtibia 26.1527
rfoot -13.2946 -25.7794
rtoes -0.46259
lfemur -7.62669 -4.01078 -15.5595
ltibia 24.9723
lfoot -11.9285 10.0561
ltoes -10.4113
203
root -0.0633424 17.9958 -30.9171 1.99953 8.9814 -2.5529
lowerback 1.42851 -0.947827 -0.220141
upperback -1.16703 -1.19983 3.71523
thorax -1.91596 -0.568936 3.98623
lowerneck -20.3156 -0.319975 10.1015
upperneck 44.8148 2.21335 -15.384
head 23.2533 0.890202 -10.3918
rclavicle 1.7257e-014 -3.97569e-015
rhumerus -45.5587 -40.2921 -19.3165
rradius 22.6689
rwrist 3.68524
rhand -25.2068 6.64663
rfingers 7.12502
rthumb 1.3118 -23.3291
lclavicle 1.7257e-014 -3.97569e-015
lhumerus -37.5253 23.6465 52.7349
lradius 28.4634
lwrist 4.43801
lhand -15.6967 -2.78627
lfingers 7.12502
lthumb 10.4927 26.9319
rfemur -6.13174 -3.43564 21.9864
rtibia 26.1933
rfoot -13.3269 -25.7342
rtoes -0.475529
lfemur -7.60156 -4.0401 -15.6116
ltibia 24.9289
lfoot -11.9096 10.1321
ltoes -10.4542
204
root -0.06702 17.9959 -30.9138 2.02196 8.91821 -2.50252
lowerback 1.39491 -0.967204 -0.267579
upperback -1.14342 -1.22804 3.7266
thorax -1.86958 -0.583125 4.02456
lowerneck -20.3963 -0.282992 10.1727
upperneck 44.7565 2.24281 -15.4227
head 23.2499 0.905889 -10.4208
rclavicle 1.32565e-014 -3.49861e-014
rhumerus -45.4249 -40.3249 -19.3112
rradius 22.7112
rwrist 3.87277
rhand -25.2833 6.80506
rfingers 7.12502
rthumb 1.23793 -23.1711
lclavicle 1.32565e-014 -3.49861e-014
lhumerus -37.418 23.6993 52.56
lradius 28.4881
lwrist 4.40713
lhand -15.8055 -2.795
lfingers 7.12502
lthumb 10.3878 26.9284
rfemur -6.15843 -3.43201 21.939
rtibia 26.2279
rfoot -13.3598 -25.683
rtoes -0.493037
lfemur -7.56782 -4.07738 -15.6631
ltibia 24.8818
lfoot -11.8824 10.2268
ltoes -10.4749
205
root -0.0707342 17.9961 -30.9101 2.03788 8.84757 -2.46618
lowerback 1.38673 -0.983887 -0.304781
upperback -1.10995 -1.25208 3.74641
thorax -1.82764 -0.595375 4.06613
lowerneck -20.5219 -0.236235 10.241
upperneck 44.6894 2.28389 -15.4596
head 23.2624 0.92578 -10.4487
rclavicle 6.33626e-015 -7.15625e-015
rhumerus -45.2762 -40.4066 -19.3064
rradius 22.7469
rwrist 4.08337
rhand -25.3727 6.95196
rfingers 7.12502
rthumb 1.15164 -23.0247
lclavicle 6.33626e-015 -7.15625e-015
lhumerus -37.2902 23.7881 52.4021
lradius 28.5052
lwrist 4.38905
lhand -15.9252 -2.77273
lfingers 7.12502
lthumb 10.2723 26.9564
rfemur -6.17612 -3.422 21.9073
rtibia 26.2543
rfoot -13.3874 -25.6315
rtoes -0.518387
lfemur -7.5288 -4.10975 -15.6995
ltibia 24.8378
lfoot -11.8553 10.3263
ltoes -10.4857
206
root -0.0748804 17.9961 -30.9067 2.05158 8.78345 -2.4431
lowerback 1.39643 -1.00257 -0.330571
upperback -1.08892 -1.27777 3.76815
thorax -1.80858 -0.608226 4.1039
lowerneck -20.6628 -0.172536 10.3455
upperneck 44.6232 2.33984 -15.5092
head 23.2919 0.958464 -10.4932
rclavicle 1.83876e-015 9.54166e-015
rhumerus -45.1269 -40.4546 -19.3308
rradius 22.7898
rwrist 4.24112
rhand -25.4874 7.08632
rfingers 7.12502
rthumb 1.04081 -22.8909
lclavicle 1.83876e-015 9.54166e-015
lhumerus -37.1772 23.8652 52.2421
lradius 28.5176
lwrist 4.37558
lhand -16.0203 -2.76132
lfingers 7.12502
lthumb 10.1806 26.9723
rfemur -6.19039 -3.4081 21.8936
rtibia 26.2731
rfoot -13.4116 -25.5904
rtoes -0.546156
lfemur -7.4972 -4.12314 -15.717
ltibia 24.8025
lfoot -11.8335 10.4026
ltoes -10.488
207
root -0.0793417 17.9961 -30.903 2.06396 8.72024 -2.43063
lowerback 1.40919 -1.0213 -0.351257
upperback -1.05479 -1.30364 3.79716
thorax -1.77767 -0.621465 4.14621
lowerneck -20.8378 -0.102912 10.4467
upperneck 44.5277 2.39976 -15.555
head 23.3087 0.989011 -10.5286
rclavicle 1.0635e-014 7.95139e-015
rhumerus -44.9653 -40.5613 -19.3555
rradius 22.8259
rwrist 4.40947
rhand -25.6554 7.20067
rfingers 7.12502
rthumb 0.878615 -22.7773
lclavicle 1.0635e-014 7.95139e-015
lhumerus -37.0453 23.9534 52.109
lradius 28.5324
lwrist 4.37781
lhand -16.0974 -2.765
lfingers 7.12502
lthumb 10.1061 26.9723
rfemur -6.20142 -3.38849 21.8941
rtibia 26.2855
rfoot -13.434 -25.5543
rtoes -0.571751
lfemur -7.47269 -4.10901 -15.7182
ltibia 24.7781
lfoot -11.8241 10.4526
ltoes -10.4847
208
root -0.0841984 17.9959 -30.8996 2.07591 8.67061 -2.42499
lowerback 1.42672 -1.05177 -0.349805
upperback -1.06006 -1.34355 3.8179
thorax -1.78955 -0.641162 4.16856
lowerneck -20.8967 -0.0398575 10.5665
upperneck 44.4305 2.45765 -15.6138
head 23.2729 1.01817 -10.563
rclavicle 1.41261e-014 -3.49861e-014
rhumerus -44.8165 -40.5561 -19.4264
rradius 22.8747
rwrist 4.5031
rhand -25.8139 7.32189
rfingers 7.12502
rthumb 0.725452 -22.6566
lclavicle 1.41261e-014 -3.49861e-014
lhumerus -36.9975 23.9783 51.9392
lradius 28.5617
lwrist 4.39361
lhand -16.1451 -2.79444
lfingers 7.12502
lthumb 10.0601 26.9451
rfemur -6.21143 -3.36937 21.9057
rtibia 26.2941
rfoot -13.4506 -25.5305
rtoes -0.594519
lfemur -7.45821 -4.0711 -15.7063
ltibia 24.7627
lfoot -11.8223 10.4672
ltoes -10.4808
